# This file uses centimeters as units for non-parametric coordinates.

mtllib kup.mtl
g default
v -5.061697 2.380085 10.769236
v -0.886866 2.380085 10.769236
v -5.061697 2.633598 10.769236
v -0.886866 2.633598 10.769236
v -5.061697 2.633598 6.769236
v -0.886866 2.633598 6.769236
v -5.061697 2.380085 6.769236
v -0.886866 2.380085 6.769236
v -4.828292 2.380085 10.607882
v -4.828292 2.541439 10.769236
v -4.989646 2.541439 10.607882
v -0.989646 2.541439 10.607882
v -1.151000 2.541439 10.769236
v -1.151000 2.380085 10.607882
v -4.989646 5.446131 10.607882
v -4.828292 5.446131 10.769236
v -4.828292 5.607485 10.607882
v -1.151000 5.607485 10.607882
v -1.151000 5.446131 10.769236
v -0.989646 5.446131 10.607882
v -4.989646 5.446131 6.930590
v -4.828292 5.607485 6.930590
v -4.828292 5.446131 6.769236
v -1.151000 5.446131 6.769236
v -1.151000 5.607485 6.930590
v -0.989646 5.446131 6.930590
v -4.989646 2.541439 6.930590
v -4.828292 2.541439 6.769236
v -4.828292 2.380085 6.930590
v -1.151000 2.380085 6.930590
v -1.151000 2.541439 6.769236
v -0.989646 2.541439 6.930590
vt 0.953012 0.667638
vt 0.953012 0.607145
vt 0.956847 0.607145
vt 0.956847 0.667638
vt 0.958093 0.667638
vt 0.958093 0.607145
vt 0.961927 0.607145
vt 0.961927 0.667638
vt 0.839700 0.729030
vt 0.839700 0.673418
vt 0.883628 0.673418
vt 0.883628 0.729030
vt 0.837259 0.729030
vt 0.837259 0.673418
vt 0.883628 0.670976
vt 0.839700 0.670976
vt 0.886068 0.729030
vt 0.886068 0.673418
vt 0.839700 0.731470
vt 0.883628 0.731470
vt 0.946254 0.729029
vt 0.946254 0.673416
vt 0.990183 0.673416
vt 0.990183 0.729029
vt 0.943814 0.673416
vt 0.943814 0.729029
vt 0.946254 0.670976
vt 0.990183 0.670976
vt 0.992623 0.673416
vt 0.992623 0.729029
vt 0.990183 0.731469
vt 0.946254 0.731469
vt 0.824650 0.670282
vt 0.824650 0.607145
vt 0.885144 0.607145
vt 0.885144 0.670282
vt 0.891372 0.670282
vt 0.891372 0.607145
vt 0.951865 0.607145
vt 0.951865 0.670282
vt 0.819536 0.734604
vt 0.875149 0.734604
vt 0.875149 0.790216
vt 0.819536 0.790216
vt 0.819536 0.732164
vt 0.875149 0.732164
vt 0.819536 0.792657
vt 0.875149 0.792657
vt 0.887134 0.673416
vt 0.942747 0.673416
vt 0.942747 0.729029
vt 0.887134 0.729029
vt 0.887134 0.670976
vt 0.942747 0.670976
vt 0.887134 0.731469
vt 0.942747 0.731469
vt 0.819536 0.670282
vt 0.819536 0.607145
vt 0.823371 0.607145
vt 0.823371 0.670282
vt 0.886292 0.670281
vt 0.886292 0.607145
vt 0.890126 0.607145
vt 0.890126 0.670281
vt 0.876469 0.787777
vt 0.876469 0.732164
vt 0.920398 0.732164
vt 0.920398 0.787777
vt 0.921515 0.787776
vt 0.921515 0.732164
vt 0.965444 0.732164
vt 0.965444 0.787776
vn 0.000000 0.000000 1.000000
vn 0.000000 0.000000 1.000000
vn 0.000000 0.000000 1.000000
vn 0.000000 0.000000 1.000000
vn 0.000000 1.000000 0.000000
vn 0.000000 1.000000 0.000000
vn 0.000000 1.000000 0.000000
vn 0.000000 1.000000 0.000000
vn 0.000000 0.000000 -1.000000
vn 0.000000 0.000000 -1.000000
vn 0.000000 0.000000 -1.000000
vn 0.000000 0.000000 -1.000000
vn 0.000000 -1.000000 0.000000
vn 0.000000 -1.000000 0.000000
vn 0.000000 -1.000000 0.000000
vn 0.000000 -1.000000 0.000000
vn 1.000000 0.000000 0.000000
vn 1.000000 0.000000 0.000000
vn 1.000000 0.000000 0.000000
vn 1.000000 0.000000 0.000000
vn -1.000000 0.000000 0.000000
vn -1.000000 0.000000 0.000000
vn -1.000000 0.000000 0.000000
vn -1.000000 0.000000 0.000000
vn -0.707106 -0.707107 0.000000
vn -0.707106 -0.707107 0.000000
vn -0.707106 -0.707107 0.000000
vn -0.707106 -0.707107 0.000000
vn 0.000000 -0.707108 0.707106
vn 0.000000 -0.707108 0.707106
vn 0.000000 -0.707108 0.707106
vn 0.000000 -0.707108 0.707106
vn -0.707106 0.000000 0.707107
vn -0.707106 0.000000 0.707107
vn -0.707106 0.000000 0.707107
vn -0.707106 0.000000 0.707107
vn 0.707107 -0.707107 0.000000
vn 0.707107 -0.707107 0.000000
vn 0.707107 -0.707107 0.000000
vn 0.707107 -0.707107 0.000000
vn 0.707107 0.000000 0.707107
vn 0.707107 0.000000 0.707107
vn 0.707107 0.000000 0.707107
vn 0.707107 0.000000 0.707107
vn -0.707107 0.707107 0.000000
vn -0.707107 0.707107 0.000000
vn -0.707107 0.707107 0.000000
vn -0.707107 0.707107 0.000000
vn 0.000000 0.707107 0.707107
vn 0.000000 0.707107 0.707107
vn 0.000000 0.707107 0.707107
vn 0.000000 0.707107 0.707107
vn 0.707107 0.707106 0.000000
vn 0.707107 0.707106 0.000000
vn 0.707107 0.707106 0.000000
vn 0.707107 0.707106 0.000000
vn -0.707106 0.000000 -0.707107
vn -0.707106 0.000000 -0.707107
vn -0.707106 0.000000 -0.707107
vn -0.707106 0.000000 -0.707107
vn 0.000000 0.707107 -0.707107
vn 0.000000 0.707107 -0.707107
vn 0.000000 0.707107 -0.707107
vn 0.000000 0.707107 -0.707107
vn 0.707107 0.000000 -0.707107
vn 0.707107 0.000000 -0.707107
vn 0.707107 0.000000 -0.707107
vn 0.707107 0.000000 -0.707107
vn 0.000000 -0.707108 -0.707106
vn 0.000000 -0.707108 -0.707106
vn 0.000000 -0.707108 -0.707106
vn 0.000000 -0.707108 -0.707106
vn 0.000000 0.000000 1.000000
vn 0.000000 0.000000 1.000000
vn 0.000000 0.000000 1.000000
vn 0.000000 0.000000 1.000000
vn 0.000000 1.000000 0.000000
vn 0.000000 1.000000 0.000000
vn 0.000000 1.000000 0.000000
vn 0.000000 1.000000 0.000000
vn 0.000000 0.000000 -1.000000
vn 0.000000 0.000000 -1.000000
vn 0.000000 0.000000 -1.000000
vn 0.000000 0.000000 -1.000000
vn 0.000000 -1.000000 0.000000
vn 0.000000 -1.000000 0.000000
vn 0.000000 -1.000000 0.000000
vn 0.000000 -1.000000 0.000000
vn 1.000000 0.000000 0.000000
vn 1.000000 0.000000 0.000000
vn 1.000000 0.000000 0.000000
vn 1.000000 0.000000 0.000000
vn -1.000000 0.000000 0.000000
vn -1.000000 0.000000 0.000000
vn -1.000000 0.000000 0.000000
vn -1.000000 0.000000 0.000000
vn -0.577349 -0.577352 0.577350
vn -0.577349 -0.577352 0.577350
vn -0.577349 -0.577352 0.577350
vn 0.577350 -0.577350 0.577351
vn 0.577350 -0.577350 0.577351
vn 0.577350 -0.577350 0.577351
vn -0.577349 0.577351 0.577351
vn -0.577349 0.577351 0.577351
vn -0.577349 0.577351 0.577351
vn 0.577350 0.577351 0.577350
vn 0.577350 0.577351 0.577350
vn 0.577350 0.577351 0.577350
vn -0.577352 0.577349 -0.577349
vn -0.577352 0.577349 -0.577349
vn -0.577352 0.577349 -0.577349
vn 0.577354 0.577349 -0.577348
vn 0.577354 0.577349 -0.577348
vn 0.577354 0.577349 -0.577348
vn -0.577349 -0.577352 -0.577350
vn -0.577349 -0.577352 -0.577350
vn -0.577349 -0.577352 -0.577350
vn 0.577350 -0.577350 -0.577351
vn 0.577350 -0.577350 -0.577351
vn 0.577350 -0.577350 -0.577351
s off
g pCube14
usemtl initialShadingGroup
f 1/57/1 2/58/2 4/59/3 3/60/4
f 3/33/5 4/34/6 6/35/7 5/36/8
f 5/61/9 6/62/10 8/63/11 7/64/12
f 7/37/13 8/38/14 2/39/15 1/40/16
f 2/1/17 8/2/18 6/3/19 4/4/20
f 7/5/21 1/6/22 3/7/23 5/8/24
f 9/25/25 11/22/26 27/21/27 29/26/28
f 10/55/29 9/52/30 14/51/31 13/56/32
f 11/22/33 10/27/34 16/28/35 15/23/36
f 12/9/37 14/13/38 30/14/39 32/10/40
f 13/19/41 12/9/42 20/12/43 19/20/44
f 15/23/45 17/29/46 22/30/47 21/24/48
f 17/41/49 16/45/50 19/46/51 18/42/52
f 18/17/53 20/12/54 26/11/55 25/18/56
f 21/24/57 23/31/58 28/32/59 27/21/60
f 23/47/61 22/44/62 25/43/63 24/48/64
f 24/15/65 26/11/66 32/10/67 31/16/68
f 29/49/69 28/53/70 31/54/71 30/50/72
f 10/65/73 13/66/74 19/67/75 16/68/76
f 17/41/77 18/42/78 25/43/79 22/44/80
f 23/69/81 24/70/82 31/71/83 28/72/84
f 29/49/85 30/50/86 14/51/87 9/52/88
f 12/9/89 32/10/90 26/11/91 20/12/92
f 27/21/93 11/22/94 15/23/95 21/24/96
f 9/25/97 10/27/98 11/22/99
f 12/9/100 13/19/101 14/13/102
f 15/23/103 16/28/104 17/29/105
f 18/17/106 19/20/107 20/12/108
f 21/24/109 22/30/110 23/31/111
f 24/15/112 25/18/113 26/11/114
f 27/21/115 28/32/116 29/26/117
f 30/14/118 31/16/119 32/10/120
