# This file uses centimeters as units for non-parametric coordinates.

mtllib 1.mtl
g default
v -48.771011 0.000000 -9.366198
v 190.210571 0.000000 -9.366198
v -48.771011 2.666207 -9.366198
v 190.210571 2.666207 -9.366198
v -48.771011 2.666207 -10.712429
v 190.210571 2.666207 -10.712429
v -48.771011 0.000000 -10.712429
v 190.210571 0.000000 -10.712429
v 240.159302 0.000000 -10.712429
v 240.159302 0.000000 -9.366198
v 240.159302 2.666207 -10.712429
v 240.159302 2.666207 -9.366198
v 297.824341 0.000000 -10.712429
v 297.824341 0.000000 -9.366198
v 297.824341 2.666207 -10.712429
v 297.824341 2.666207 -9.366198
v 321.836639 0.000000 -10.712429
v 321.836639 0.000000 -9.366198
v 321.836639 2.666207 -10.712429
v 321.836639 2.666207 -9.366198
vt 0.010428 0.271166
vt 0.010428 0.109164
vt 0.012235 0.109164
vt 0.012235 0.271166
vt 0.013731 0.271165
vt 0.013731 0.109164
vt 0.014644 0.109164
vt 0.014644 0.271165
vt 0.016523 0.271165
vt 0.016523 0.109164
vt 0.018330 0.109164
vt 0.018330 0.271165
vt 0.020245 0.271165
vt 0.020245 0.109164
vt 0.021157 0.109164
vt 0.021157 0.271165
vt 0.085382 0.019937
vt 0.086294 0.019937
vt 0.086294 0.021744
vt 0.085382 0.021744
vt 0.088173 0.019937
vt 0.089086 0.019937
vt 0.089086 0.021744
vt 0.088173 0.021744
vt 0.020245 0.075304
vt 0.021157 0.075304
vt 0.016523 0.075304
vt 0.018330 0.075304
vt 0.013731 0.075304
vt 0.014644 0.075304
vt 0.010428 0.075304
vt 0.012235 0.075304
vt 0.020245 0.036214
vt 0.021157 0.036214
vt 0.016523 0.036214
vt 0.018330 0.036214
vt 0.013731 0.036214
vt 0.014644 0.036214
vt 0.010428 0.036214
vt 0.012235 0.036214
vt 0.020245 0.019937
vt 0.021157 0.019937
vt 0.016523 0.019937
vt 0.018330 0.019937
vt 0.013731 0.019937
vt 0.014644 0.019937
vt 0.010428 0.019937
vt 0.012235 0.019937
vn 0.000000 0.000000 1.000000
vn 0.000000 0.000000 1.000000
vn 0.000000 0.000000 1.000000
vn 0.000000 0.000000 1.000000
vn 0.000000 1.000000 0.000000
vn 0.000000 1.000000 0.000000
vn 0.000000 1.000000 0.000000
vn 0.000000 1.000000 0.000000
vn 0.000000 0.000000 -1.000000
vn 0.000000 0.000000 -1.000000
vn 0.000000 0.000000 -1.000000
vn 0.000000 0.000000 -1.000000
vn 0.000000 -1.000000 0.000000
vn 0.000000 -1.000000 0.000000
vn 0.000000 -1.000000 0.000000
vn 0.000000 -1.000000 0.000000
vn 1.000000 0.000000 0.000000
vn 1.000000 0.000000 0.000000
vn 1.000000 0.000000 0.000000
vn 1.000000 0.000000 0.000000
vn -1.000000 0.000000 0.000000
vn -1.000000 0.000000 0.000000
vn -1.000000 0.000000 0.000000
vn -1.000000 0.000000 0.000000
vn 0.000000 -1.000000 0.000000
vn 0.000000 -1.000000 0.000000
vn 0.000000 0.000000 -1.000000
vn 0.000000 0.000000 -1.000000
vn 0.000000 1.000000 0.000000
vn 0.000000 1.000000 0.000000
vn 0.000000 0.000000 1.000000
vn 0.000000 0.000000 1.000000
vn 0.000000 -1.000000 0.000000
vn 0.000000 -1.000000 0.000000
vn 0.000000 0.000000 -1.000000
vn 0.000000 0.000000 -1.000000
vn 0.000000 1.000000 0.000000
vn 0.000000 1.000000 0.000000
vn 0.000000 0.000000 1.000000
vn 0.000000 0.000000 1.000000
vn 0.000000 -1.000000 0.000000
vn 0.000000 -1.000000 0.000000
vn 0.000000 0.000000 -1.000000
vn 0.000000 0.000000 -1.000000
vn 0.000000 1.000000 0.000000
vn 0.000000 1.000000 0.000000
vn 0.000000 0.000000 1.000000
vn 0.000000 0.000000 1.000000
s 1
g polySurface11
usemtl initialShadingGroup
f 1/1/1 2/2/2 4/3/3 3/4/4
s 2
f 3/5/5 4/6/6 6/7/7 5/8/8
s 3
f 5/9/9 6/10/10 8/11/11 7/12/12
s 4
f 7/13/13 8/14/14 2/15/15 1/16/16
s off
f 18/17/17 17/18/18 19/19/19 20/20/20
f 7/21/21 1/22/22 3/23/23 5/24/24
s 4
f 2/15/15 8/14/14 9/25/25 10/26/26
s 3
f 8/11/11 6/10/10 11/27/27 9/28/28
s 2
f 6/7/7 4/6/6 12/29/29 11/30/30
s 1
f 4/3/3 2/2/2 10/31/31 12/32/32
s 4
f 10/26/26 9/25/25 13/33/33 14/34/34
s 3
f 9/28/28 11/27/27 15/35/35 13/36/36
s 2
f 11/30/30 12/29/29 16/37/37 15/38/38
s 1
f 12/32/32 10/31/31 14/39/39 16/40/40
s 4
f 14/34/34 13/33/33 17/41/41 18/42/42
s 3
f 13/36/36 15/35/35 19/43/43 17/44/44
s 2
f 15/38/38 16/37/37 20/45/45 19/46/46
s 1
f 16/40/40 14/39/39 18/47/47 20/48/48
g default
v -48.771011 0.000000 12.115467
v 190.210571 0.000000 12.115467
v -48.771011 2.666207 12.115467
v 190.210571 2.666207 12.115467
v -48.771011 2.666207 10.769236
v 190.210571 2.666207 10.769236
v -48.771011 0.000000 10.769236
v 190.210571 0.000000 10.769236
v 240.667236 0.000000 10.769236
v 240.667236 0.000000 12.115467
v 240.667236 2.666207 10.769236
v 240.667236 2.666207 12.115467
v 321.777832 0.000000 10.769236
v 321.777832 0.000000 12.115467
v 321.777832 2.666207 10.769236
v 321.777832 2.666207 12.115467
vt 0.060257 0.271126
vt 0.060257 0.109124
vt 0.062065 0.109124
vt 0.062065 0.271126
vt 0.063980 0.271126
vt 0.063980 0.109124
vt 0.064892 0.109124
vt 0.064892 0.271126
vt 0.066771 0.271126
vt 0.066771 0.109124
vt 0.068579 0.109124
vt 0.068579 0.271126
vt 0.070493 0.271126
vt 0.070493 0.109124
vt 0.071406 0.109124
vt 0.071406 0.271126
vt 0.079799 0.019937
vt 0.080711 0.019937
vt 0.080711 0.021744
vt 0.079799 0.021744
vt 0.082590 0.019937
vt 0.083503 0.019937
vt 0.083503 0.021744
vt 0.082590 0.021744
vt 0.070493 0.074920
vt 0.071406 0.074920
vt 0.066771 0.074920
vt 0.068579 0.074920
vt 0.063980 0.074920
vt 0.064892 0.074920
vt 0.060257 0.074920
vt 0.062065 0.074920
vt 0.070493 0.019937
vt 0.071406 0.019937
vt 0.066771 0.019937
vt 0.068579 0.019937
vt 0.063980 0.019937
vt 0.064892 0.019937
vt 0.060257 0.019937
vt 0.062065 0.019937
vn 0.000000 0.000000 1.000000
vn 0.000000 0.000000 1.000000
vn 0.000000 0.000000 1.000000
vn 0.000000 0.000000 1.000000
vn 0.000000 1.000000 0.000000
vn 0.000000 1.000000 0.000000
vn 0.000000 1.000000 0.000000
vn 0.000000 1.000000 0.000000
vn 0.000000 0.000000 -1.000000
vn 0.000000 0.000000 -1.000000
vn 0.000000 0.000000 -1.000000
vn 0.000000 0.000000 -1.000000
vn 0.000000 -1.000000 0.000000
vn 0.000000 -1.000000 0.000000
vn 0.000000 -1.000000 0.000000
vn 0.000000 -1.000000 0.000000
vn 1.000000 0.000000 0.000000
vn 1.000000 0.000000 0.000000
vn 1.000000 0.000000 0.000000
vn 1.000000 0.000000 0.000000
vn -1.000000 0.000000 0.000000
vn -1.000000 0.000000 0.000000
vn -1.000000 0.000000 0.000000
vn -1.000000 0.000000 0.000000
vn 0.000000 -1.000000 0.000000
vn 0.000000 -1.000000 0.000000
vn 0.000000 0.000000 -1.000000
vn 0.000000 0.000000 -1.000000
vn 0.000000 1.000000 0.000000
vn 0.000000 1.000000 0.000000
vn 0.000000 0.000000 1.000000
vn 0.000000 0.000000 1.000000
vn 0.000000 -1.000000 0.000000
vn 0.000000 -1.000000 0.000000
vn 0.000000 0.000000 -1.000000
vn 0.000000 0.000000 -1.000000
vn 0.000000 1.000000 0.000000
vn 0.000000 1.000000 0.000000
vn 0.000000 0.000000 1.000000
vn 0.000000 0.000000 1.000000
s 1
g polySurface10
usemtl initialShadingGroup
f 21/49/49 22/50/50 24/51/51 23/52/52
s 2
f 23/53/53 24/54/54 26/55/55 25/56/56
s 3
f 25/57/57 26/58/58 28/59/59 27/60/60
s 4
f 27/61/61 28/62/62 22/63/63 21/64/64
s off
f 34/65/65 33/66/66 35/67/67 36/68/68
f 27/69/69 21/70/70 23/71/71 25/72/72
s 4
f 22/63/63 28/62/62 29/73/73 30/74/74
s 3
f 28/59/59 26/58/58 31/75/75 29/76/76
s 2
f 26/55/55 24/54/54 32/77/77 31/78/78
s 1
f 24/51/51 22/50/50 30/79/79 32/80/80
s 4
f 30/74/74 29/73/73 33/81/81 34/82/82
s 3
f 29/76/76 31/75/75 35/83/83 33/84/84
s 2
f 31/78/78 32/77/77 36/85/85 35/86/86
s 1
f 32/80/80 30/79/79 34/87/87 36/88/88
g default
v -48.771011 0.000000 10.769236
v 190.210571 0.000000 10.769236
v -48.771011 2.380085 10.769236
v 190.210571 2.380085 10.769236
v -48.771011 2.380085 -9.366198
v 190.210571 2.380085 -9.366198
v -48.771011 0.000000 -9.366198
v 190.210571 0.000000 -9.366198
v 239.462708 0.000000 -9.366198
v 239.462708 0.000000 10.769236
v 239.462708 2.380085 -9.366198
v 239.462708 2.380085 10.769236
v 297.369141 0.000000 -9.366198
v 297.369141 0.000000 10.769236
v 297.369141 2.380085 -9.366198
v 297.369141 2.380085 10.769236
v 321.777832 0.000000 -9.366198
v 321.777832 0.000000 10.769236
v 321.777832 2.380085 -9.366198
v 321.777832 2.380085 10.769236
vt 0.023036 0.271126
vt 0.023036 0.109124
vt 0.024650 0.109124
vt 0.024650 0.271126
vt 0.026293 0.271126
vt 0.026293 0.109124
vt 0.039943 0.109124
vt 0.039943 0.271126
vt 0.041647 0.271126
vt 0.041647 0.109124
vt 0.043260 0.109124
vt 0.043260 0.271126
vt 0.044904 0.271126
vt 0.044904 0.109124
vt 0.058553 0.109124
vt 0.058553 0.271126
vt 0.073285 0.033586
vt 0.073285 0.019937
vt 0.074898 0.019937
vt 0.074898 0.033586
vt 0.076542 0.033586
vt 0.076542 0.019937
vt 0.078155 0.019937
vt 0.078155 0.033586
vt 0.044904 0.075737
vt 0.058553 0.075737
vt 0.041647 0.075737
vt 0.043260 0.075737
vt 0.026293 0.075737
vt 0.039943 0.075737
vt 0.023036 0.075737
vt 0.024650 0.075737
vt 0.044904 0.036483
vt 0.058553 0.036483
vt 0.041647 0.036483
vt 0.043260 0.036483
vt 0.026293 0.036483
vt 0.039943 0.036483
vt 0.023036 0.036483
vt 0.024650 0.036483
vt 0.044904 0.019937
vt 0.058553 0.019937
vt 0.041647 0.019937
vt 0.043260 0.019937
vt 0.026293 0.019937
vt 0.039943 0.019937
vt 0.023036 0.019937
vt 0.024650 0.019937
vn 0.000000 0.000000 1.000000
vn 0.000000 0.000000 1.000000
vn 0.000000 0.000000 1.000000
vn 0.000000 0.000000 1.000000
vn 0.000000 1.000000 0.000000
vn 0.000000 1.000000 0.000000
vn 0.000000 1.000000 0.000000
vn 0.000000 1.000000 0.000000
vn 0.000000 0.000000 -1.000000
vn 0.000000 0.000000 -1.000000
vn 0.000000 0.000000 -1.000000
vn 0.000000 0.000000 -1.000000
vn 0.000000 -1.000000 0.000000
vn 0.000000 -1.000000 0.000000
vn 0.000000 -1.000000 0.000000
vn 0.000000 -1.000000 0.000000
vn 1.000000 0.000000 0.000000
vn 1.000000 0.000000 0.000000
vn 1.000000 0.000000 0.000000
vn 1.000000 0.000000 0.000000
vn -1.000000 0.000000 0.000000
vn -1.000000 0.000000 0.000000
vn -1.000000 0.000000 0.000000
vn -1.000000 0.000000 0.000000
vn 0.000000 -1.000000 0.000000
vn 0.000000 -1.000000 0.000000
vn 0.000000 0.000000 -1.000000
vn 0.000000 0.000000 -1.000000
vn 0.000000 1.000000 0.000000
vn 0.000000 1.000000 0.000000
vn 0.000000 0.000000 1.000000
vn 0.000000 0.000000 1.000000
vn 0.000000 -1.000000 0.000000
vn 0.000000 -1.000000 0.000000
vn 0.000000 0.000000 -1.000000
vn 0.000000 0.000000 -1.000000
vn 0.000000 1.000000 0.000000
vn 0.000000 1.000000 0.000000
vn 0.000000 0.000000 1.000000
vn 0.000000 0.000000 1.000000
vn 0.000000 -1.000000 0.000000
vn 0.000000 -1.000000 0.000000
vn 0.000000 0.000000 -1.000000
vn 0.000000 0.000000 -1.000000
vn 0.000000 1.000000 0.000000
vn 0.000000 1.000000 0.000000
vn 0.000000 0.000000 1.000000
vn 0.000000 0.000000 1.000000
s 1
g polySurface9
usemtl initialShadingGroup
f 37/89/89 38/90/90 40/91/91 39/92/92
s 2
f 39/93/93 40/94/94 42/95/95 41/96/96
s 3
f 41/97/97 42/98/98 44/99/99 43/100/100
s 4
f 43/101/101 44/102/102 38/103/103 37/104/104
s off
f 54/105/105 53/106/106 55/107/107 56/108/108
f 43/109/109 37/110/110 39/111/111 41/112/112
s 4
f 38/103/103 44/102/102 45/113/113 46/114/114
s 3
f 44/99/99 42/98/98 47/115/115 45/116/116
s 2
f 42/95/95 40/94/94 48/117/117 47/118/118
s 1
f 40/91/91 38/90/90 46/119/119 48/120/120
s 4
f 46/114/114 45/113/113 49/121/121 50/122/122
s 3
f 45/116/116 47/115/115 51/123/123 49/124/124
s 2
f 47/118/118 48/117/117 52/125/125 51/126/126
s 1
f 48/120/120 46/119/119 50/127/127 52/128/128
s 4
f 50/122/122 49/121/121 53/129/129 54/130/130
s 3
f 49/124/124 51/123/123 55/131/131 53/132/132
s 2
f 51/126/126 52/125/125 56/133/133 55/134/134
s 1
f 52/128/128 50/127/127 54/135/135 56/136/136
